<svg width="1552" height="1325" viewBox="0 0 1552 1325" fill="none" xmlns="http://www.w3.org/2000/svg">
<path d="M749.457 273.046C751.359 273.037 753.26 273.028 755.219 273.019C761.365 272.997 767.512 272.997 773.658 273.003C775.742 273.003 777.825 273.003 779.972 273.003C809.41 273.03 838.553 273.48 867.728 277.789C869.861 278.09 871.995 278.392 874.193 278.703C913.442 284.451 952.797 293.016 990.236 306.228C992.318 306.96 994.4 307.691 996.544 308.445C1010.72 313.447 1024.84 318.558 1038.95 323.739C1043.74 325.486 1048.55 327.187 1053.37 328.848C1084.59 339.982 1113.46 357.42 1139 378.421C1140.82 379.919 1140.82 379.919 1142.69 381.446C1171.03 404.826 1195.76 429.909 1217.75 459.365C1219.17 461.239 1219.17 461.239 1220.62 463.151C1235.41 482.789 1247.8 503.288 1259.32 524.994C1260.04 526.34 1260.77 527.685 1261.52 529.072C1271.75 548.103 1280.23 567.719 1288.3 587.753C1289.21 589.986 1290.11 592.219 1291.04 594.52C1301.26 620.364 1308.63 646.395 1314.15 673.618C1314.71 676.363 1315.27 679.108 1315.85 681.936C1320.68 706.057 1324.48 730.244 1327.14 754.698C1327.34 756.585 1327.55 758.472 1327.76 760.416C1331.72 799.796 1329.92 839.385 1326.32 878.711C1326.18 880.248 1326.04 881.784 1325.9 883.367C1324.39 899.821 1322.39 915.852 1318.39 931.899C1317.69 935.17 1317.01 938.443 1316.33 941.718C1292.18 1053.49 1233.12 1159.68 1138.71 1226.5C1134.99 1229.16 1131.34 1231.9 1127.7 1234.66C1066.41 1279.88 983.659 1302.17 909.703 1315.29C907.856 1315.62 906.008 1315.95 904.104 1316.29C867.195 1322.47 830.588 1324.31 793.21 1324.17C790.954 1324.17 788.698 1324.17 786.373 1324.16C751.851 1324.06 718.033 1323 683.964 1316.93C681.791 1316.54 679.619 1316.15 677.38 1315.75C661.972 1312.91 646.707 1309.59 631.46 1305.99C629.349 1305.49 627.237 1305 625.061 1304.49C568.646 1291.11 516.087 1269.78 464.652 1243.23C462.776 1242.27 460.901 1241.31 458.968 1240.32C441.53 1231.14 426.619 1220.1 412.831 1206.04C411.15 1204.34 411.15 1204.34 409.435 1202.6C398.822 1191.72 389.26 1180.13 379.88 1168.17C377.951 1165.78 376.02 1163.39 374.086 1161C359.547 1142.96 346.309 1124.31 333.939 1104.72C332.642 1102.69 332.642 1102.69 331.32 1100.61C305.614 1059.79 284.586 1015.69 269.978 969.726C268.147 964.227 266.086 958.84 264.019 953.425C258.71 938.924 255.206 924.102 251.765 909.065C251.434 907.634 251.103 906.203 250.762 904.728C245.16 880.419 240.477 856.07 237.682 831.266C237.477 829.617 237.273 827.967 237.062 826.267C234.984 807.298 235.087 788.287 235.089 769.229C235.084 763.378 235.044 757.528 235.003 751.678C234.564 622.44 282.584 498.564 373.18 406.314C414.062 365.706 466.969 334.679 522.462 319.662C531.763 316.888 540.823 313.629 549.95 310.336C578.266 300.19 606.311 292.21 635.836 286.539C637.961 286.125 640.086 285.711 642.275 285.284C665.63 280.794 688.703 276.938 712.489 275.986C718.709 275.802 718.709 275.802 723.619 274.506C732.254 273.005 740.708 273.059 749.457 273.046ZM482.29 522.123C480.624 522.695 478.959 523.266 477.243 523.855C463.095 528.935 450.868 535.451 438.947 544.683C436.201 546.798 436.201 546.798 433.401 548.956C397.789 578.678 372.187 628.719 362.379 673.755C358.735 742.073 374.073 811.763 419.941 864.218C464.688 912.475 523.261 932.37 588.162 934.823C647.932 935.911 702.895 909.102 745.612 868.465C756.835 857.574 767.411 846.709 775.846 833.454C777.039 835.095 778.232 836.737 779.461 838.428C818.059 890.816 863.801 920.709 927.751 932.582C988.686 941.217 1056.35 922.463 1105.33 886.095C1150.99 850.67 1180.17 801.721 1188.63 744.23C1193.84 690.672 1183.08 644.982 1149.12 602.383C1131.07 581.002 1111.83 564.533 1088.68 549.059C1086.81 547.792 1084.94 546.526 1083.01 545.222C1047.97 522.854 1007.36 512.438 966.13 513.155C961.365 513.236 956.603 513.245 951.837 513.244C901.069 513.497 852.344 524.222 813.036 557.809C810.825 559.479 808.614 561.148 806.336 562.868C794.58 573.624 785.348 586.636 775.846 599.375C774.963 598.39 774.081 597.406 773.171 596.392C739.063 560.256 690.39 532.892 642.399 520.619C640.891 520.203 639.383 519.786 637.829 519.357C589.197 506.208 530.158 505.487 482.29 522.123ZM734.554 990.282C730.953 997.684 731.132 1004.83 732.093 1012.84C735.162 1020.5 735.162 1020.5 739.767 1027.74C740.561 1029.07 741.355 1030.41 742.174 1031.79C744.703 1036.02 747.284 1040.22 749.867 1044.43C751.552 1047.23 753.232 1050.04 754.909 1052.86C768.896 1079.37 768.896 1079.37 788.972 1100.35C793.589 1101.2 793.589 1101.2 798.543 1101.17C801.005 1101.26 801.005 1101.26 803.516 1101.36C812.709 1099.56 818.26 1093.57 823.409 1086C824.538 1083.92 825.666 1081.84 826.829 1079.7C828.106 1077.38 829.384 1075.06 830.7 1072.67C832 1070.25 833.3 1067.84 834.639 1065.35C837.229 1060.6 839.821 1055.86 842.416 1051.13C843.687 1048.78 844.959 1046.43 846.269 1044.02C851.474 1034.67 857.05 1025.55 862.698 1016.47C866.421 1008.85 866.7 1003.2 864.933 994.999C862.623 989.104 859.747 985.847 854.602 982.215C848.571 980.205 844.891 979.731 838.666 979.675C835.839 979.643 835.839 979.643 832.956 979.611C830.925 979.602 828.895 979.592 826.803 979.583C824.707 979.57 822.611 979.558 820.451 979.545C816.014 979.524 811.577 979.51 807.139 979.502C800.369 979.48 793.601 979.413 786.831 979.344C782.517 979.329 778.203 979.318 773.889 979.309C771.872 979.282 769.855 979.255 767.776 979.228C754.448 979.273 744.824 981.039 734.554 990.282Z" fill="#FE7700"/>
<path d="M642.403 520.62C643.952 521.054 645.501 521.488 647.097 521.935C693.438 535.4 734.507 560.57 769.373 593.573C773.285 597.658 773.285 597.658 778.038 597.188C781.557 593.294 781.557 593.294 785.148 588.301C786.527 586.493 787.906 584.686 789.327 582.823C791.677 579.714 794.022 576.6 796.351 573.474C824.196 538.359 870.434 520.619 913.784 514.912C955.455 510.905 1001.18 509.427 1040.56 524.995C1043.11 525.997 1045.66 526.998 1048.28 528.029C1055.38 531.112 1062.17 534.495 1069 538.121C1071.49 539.402 1073.98 540.682 1076.54 542.001C1095.86 552.251 1111.96 564.972 1128.06 579.687C1130.49 581.84 1130.49 581.84 1132.96 584.037C1166.05 615.003 1187.56 656.892 1189.32 702.196C1189.49 706.265 1189.49 706.265 1189.67 710.417C1191.04 771.589 1167.13 825.85 1125.19 870.099C1077.4 915.878 1010.58 934.611 945.673 934.327C936.544 933.946 927.8 932.389 918.868 930.533C916.983 930.144 915.098 929.756 913.156 929.356C854.129 916.522 809.111 883.72 775.85 833.455C774.892 834.73 773.933 836.005 772.945 837.318C732.2 889.988 678.348 924.873 611.776 934.088C548.997 937.628 485.395 922.729 436.763 881.584C394.772 843.87 372.972 792.247 364.571 737.198C364.28 735.346 363.99 733.493 363.69 731.584C363.001 726.152 362.652 720.792 362.383 715.322C362.288 713.894 362.194 712.466 362.097 710.994C358.803 656.708 383.722 602.396 419.399 561.912C473.393 503.72 570.534 500.02 642.403 520.62ZM950.359 653.802C930.132 678.048 924.471 708.646 926.799 739.386C930.755 764.268 939.666 786.727 959.614 802.828C970.73 810.486 981.517 811.175 994.616 809.391C1010.55 804.661 1020.1 794.068 1028.33 780.088C1043.26 751.753 1045.7 717.507 1037.14 686.609C1031.04 669.808 1021.1 652.696 1005.55 643.129C985.199 634.279 966.49 639.201 950.359 653.802ZM506.392 667.843C489.238 693.208 486.306 723.794 490.275 753.495C495.243 778.186 505.836 796.813 526.457 811.579C535.441 816.744 544.736 817.633 554.897 815.954C576.725 808.7 586.717 794.689 596.77 774.935C607.205 747.614 607.055 713.721 597.026 686.369C589.308 669.398 579.801 657.148 563.647 647.504C539.786 639.551 521.764 649.566 506.392 667.843Z" fill="#FEFEFE"/>
<path d="M566.102 648.603C586.564 660.319 596.149 680.699 602.181 702.764C606.814 735.95 603.433 765.564 585.517 794.082C584.299 796.067 583.081 798.053 581.826 800.098C572.209 809.455 559.468 816.436 545.866 817.189C528.01 814.597 517.691 806.568 506.232 792.817C488.676 768.63 485.855 737.198 490.354 708.302C495.362 686.163 503.766 666.089 522.075 651.884C536.314 643.71 550.921 641.996 566.102 648.603Z" fill="black"/>
<path d="M1014.44 649.834C1032.36 665.884 1039.95 689.112 1041.25 712.456C1042.31 744.056 1038.3 771.822 1016.49 796.27C1004.66 806.787 994.08 810.358 978.48 810.131C963.665 808.235 952.664 797.414 943.435 786.306C925.945 759.667 923.05 727.098 929.258 696.458C934.985 674.403 944.778 656.043 963.987 643.134C982.496 634.446 998.061 638.803 1014.44 649.834Z" fill="black"/>
<path d="M773.52 979.371C775.616 979.362 777.711 979.352 779.869 979.343C784.29 979.33 788.71 979.329 793.13 979.339C799.886 979.345 806.639 979.294 813.394 979.239C817.695 979.234 821.996 979.232 826.298 979.234C829.32 979.204 829.32 979.204 832.403 979.173C843.047 979.25 850.377 979.592 858.976 986.592C865.402 994.791 866.339 1000.39 865.539 1010.66C863.005 1016.72 863.005 1016.72 859.454 1022.9C858.161 1025.18 856.868 1027.47 855.535 1029.82C854.144 1032.2 852.753 1034.59 851.319 1037.04C849.919 1039.49 848.519 1041.93 847.077 1044.44C843.054 1051.43 838.99 1058.39 834.912 1065.35C833.913 1067.07 832.914 1068.79 831.884 1070.57C817.618 1095.1 817.618 1095.1 808.66 1100.35C803.883 1101.38 803.883 1101.38 798.952 1101.44C797.33 1101.51 795.709 1101.58 794.038 1101.65C781.863 1098.53 775.215 1085.63 769.137 1075.48C768.347 1074.18 767.558 1072.87 766.745 1071.52C764.249 1067.37 761.774 1063.22 759.301 1059.06C757.634 1056.29 755.966 1053.51 754.297 1050.74C749.782 1043.23 745.29 1035.71 740.842 1028.16C740.037 1026.79 739.232 1025.43 738.402 1024.02C731.975 1012.99 730.472 1007.9 732.092 995.343C741.854 978.71 756.1 979.354 773.52 979.371Z" fill="#010000"/>
<rect x="429" y="107.701" width="40" height="248" transform="rotate(-15.5172 429 107.701)" fill="#FE7700"/>
<rect x="1088.81" y="110" width="40" height="248" transform="rotate(19.9967 1088.81 110)" fill="#FE7700"/>
<circle cx="440" cy="62" r="62" fill="#FE7700"/>
<circle cx="1126" cy="62" r="62" fill="#FE7700"/>
<ellipse cx="144.5" cy="858.5" rx="144.5" ry="265.5" fill="black"/>
<ellipse cx="1407.5" cy="836.5" rx="144.5" ry="265.5" fill="black"/>
<path d="M213 644.962L123 617.462C139.5 548.5 235 195.462 792 178.462C1237.6 164.862 1405.33 455.128 1433.5 601.962L1348.5 610.462C1267.5 416.962 1142 242.462 792 245.462C442 248.462 335 417.962 288 461.462C250.4 496.262 222.333 598.295 213 644.962Z" fill="black" stroke="black"/>
</svg>
