<svg width="1552" height="1336" viewBox="0 0 1552 1336" fill="none" xmlns="http://www.w3.org/2000/svg">
<path d="M751.457 284.046C753.359 284.037 755.26 284.028 757.219 284.019C763.365 283.997 769.512 283.997 775.658 284.003C777.742 284.003 779.825 284.003 781.972 284.003C811.41 284.03 840.553 284.48 869.728 288.789C871.861 289.09 873.995 289.392 876.193 289.703C915.442 295.451 954.797 304.016 992.236 317.228C994.318 317.96 996.4 318.691 998.544 319.445C1012.72 324.447 1026.84 329.558 1040.95 334.739C1045.74 336.486 1050.55 338.187 1055.37 339.848C1086.59 350.982 1115.46 368.42 1141 389.421C1142.82 390.919 1142.82 390.919 1144.69 392.446C1173.03 415.826 1197.76 440.909 1219.75 470.365C1221.17 472.239 1221.17 472.239 1222.62 474.151C1237.41 493.789 1249.8 514.288 1261.32 535.994C1262.04 537.34 1262.77 538.685 1263.52 540.072C1273.75 559.103 1282.23 578.719 1290.3 598.753C1291.21 600.986 1292.11 603.219 1293.04 605.52C1303.26 631.364 1310.63 657.395 1316.15 684.618C1316.71 687.363 1317.27 690.108 1317.85 692.936C1322.68 717.057 1326.48 741.244 1329.14 765.698C1329.34 767.585 1329.55 769.472 1329.76 771.416C1333.72 810.796 1331.92 850.385 1328.32 889.711C1328.18 891.248 1328.04 892.784 1327.9 894.367C1326.39 910.821 1324.39 926.852 1320.39 942.899C1319.69 946.17 1319.01 949.443 1318.33 952.718C1294.18 1064.49 1235.12 1170.68 1140.71 1237.5C1136.99 1240.16 1133.34 1242.9 1129.7 1245.66C1068.41 1290.88 985.659 1313.17 911.703 1326.29C909.856 1326.62 908.008 1326.95 906.104 1327.29C869.195 1333.47 832.588 1335.31 795.21 1335.17C792.954 1335.17 790.698 1335.17 788.373 1335.16C753.851 1335.06 720.033 1334 685.964 1327.93C683.791 1327.54 681.619 1327.15 679.38 1326.75C663.972 1323.91 648.707 1320.59 633.46 1316.99C631.349 1316.49 629.237 1316 627.061 1315.49C570.646 1302.11 518.087 1280.78 466.652 1254.23C464.776 1253.27 462.901 1252.31 460.968 1251.32C443.53 1242.14 428.619 1231.1 414.831 1217.04C413.15 1215.34 413.15 1215.34 411.435 1213.6C400.822 1202.72 391.26 1191.13 381.88 1179.17C379.951 1176.78 378.02 1174.39 376.086 1172C361.547 1153.96 348.309 1135.31 335.939 1115.72C334.642 1113.69 334.642 1113.69 333.32 1111.61C307.614 1070.79 286.586 1026.69 271.978 980.726C270.147 975.227 268.086 969.84 266.019 964.425C260.71 949.924 257.206 935.102 253.765 920.065C253.434 918.634 253.103 917.203 252.762 915.728C247.16 891.419 242.477 867.07 239.682 842.266C239.477 840.617 239.273 838.967 239.062 837.267C236.984 818.298 237.087 799.287 237.089 780.229C237.084 774.378 237.044 768.528 237.003 762.678C236.564 633.44 284.584 509.564 375.18 417.314C416.062 376.706 468.969 345.679 524.462 330.662C533.763 327.888 542.823 324.629 551.95 321.336C580.266 311.19 608.311 303.21 637.836 297.539C639.961 297.125 642.086 296.711 644.275 296.284C667.63 291.794 690.703 287.938 714.489 286.986C720.709 286.802 720.709 286.802 725.619 285.506C734.254 284.005 742.708 284.059 751.457 284.046ZM484.29 533.123C482.624 533.695 480.959 534.266 479.243 534.855C465.095 539.935 452.868 546.451 440.947 555.683C438.201 557.798 438.201 557.798 435.401 559.956C399.789 589.678 374.187 639.719 364.379 684.755C360.735 753.073 376.073 822.763 421.941 875.218C466.688 923.475 525.261 943.37 590.162 945.823C649.932 946.911 704.895 920.102 747.612 879.465C758.835 868.574 769.411 857.709 777.846 844.454C779.039 846.095 780.232 847.737 781.461 849.428C820.059 901.816 865.801 931.709 929.751 943.582C990.686 952.217 1058.35 933.463 1107.33 897.095C1152.99 861.67 1182.17 812.721 1190.63 755.23C1195.84 701.672 1185.08 655.982 1151.12 613.383C1133.07 592.002 1113.83 575.533 1090.68 560.059C1088.81 558.792 1086.94 557.526 1085.01 556.222C1049.97 533.854 1009.36 523.438 968.13 524.155C963.365 524.236 958.603 524.245 953.837 524.244C903.069 524.497 854.344 535.222 815.036 568.809C812.825 570.479 810.614 572.148 808.336 573.868C796.58 584.624 787.348 597.636 777.846 610.375C776.963 609.39 776.081 608.406 775.171 607.392C741.063 571.256 692.39 543.892 644.399 531.619C642.891 531.203 641.383 530.786 639.829 530.357C591.197 517.208 532.158 516.487 484.29 533.123ZM736.554 1001.28C732.953 1008.68 733.132 1015.83 734.093 1023.84C737.162 1031.5 737.162 1031.5 741.767 1038.74C742.561 1040.07 743.355 1041.41 744.174 1042.79C746.703 1047.02 749.284 1051.22 751.867 1055.43C753.552 1058.23 755.232 1061.04 756.909 1063.86C770.896 1090.37 770.896 1090.37 790.972 1111.35C795.589 1112.2 795.589 1112.2 800.543 1112.17C803.005 1112.26 803.005 1112.26 805.516 1112.36C814.709 1110.56 820.26 1104.57 825.409 1097C826.538 1094.92 827.666 1092.84 828.829 1090.7C830.106 1088.38 831.384 1086.06 832.7 1083.67C834 1081.25 835.3 1078.84 836.639 1076.35C839.229 1071.6 841.821 1066.86 844.416 1062.13C845.687 1059.78 846.959 1057.43 848.269 1055.02C853.474 1045.67 859.05 1036.55 864.698 1027.47C868.421 1019.85 868.7 1014.2 866.933 1006C864.623 1000.1 861.747 996.847 856.602 993.215C850.571 991.205 846.891 990.731 840.666 990.675C837.839 990.643 837.839 990.643 834.956 990.611C832.925 990.602 830.895 990.592 828.803 990.583C826.707 990.57 824.611 990.558 822.451 990.545C818.014 990.524 813.577 990.51 809.139 990.502C802.369 990.48 795.601 990.413 788.831 990.344C784.517 990.329 780.203 990.318 775.889 990.309C773.872 990.282 771.855 990.255 769.776 990.228C756.448 990.273 746.824 992.039 736.554 1001.28Z" fill="#4B6DE2"/>
<path d="M644.403 531.62C645.952 532.054 647.501 532.488 649.097 532.935C695.438 546.4 736.507 571.57 771.373 604.573C775.285 608.658 775.285 608.658 780.038 608.188C783.557 604.294 783.557 604.294 787.148 599.301C788.527 597.493 789.906 595.686 791.327 593.823C793.677 590.714 796.022 587.6 798.351 584.474C826.196 549.359 872.434 531.619 915.784 525.912C957.455 521.905 1003.18 520.427 1042.56 535.995C1045.11 536.997 1047.66 537.998 1050.28 539.029C1057.38 542.112 1064.17 545.495 1071 549.121C1073.49 550.402 1075.98 551.682 1078.54 553.001C1097.86 563.251 1113.96 575.972 1130.06 590.687C1132.49 592.84 1132.49 592.84 1134.96 595.037C1168.05 626.003 1189.56 667.892 1191.32 713.196C1191.49 717.265 1191.49 717.265 1191.67 721.417C1193.04 782.589 1169.13 836.85 1127.19 881.099C1079.4 926.878 1012.58 945.611 947.673 945.327C938.544 944.946 929.8 943.389 920.868 941.533C918.983 941.144 917.098 940.756 915.156 940.356C856.129 927.522 811.111 894.72 777.85 844.455C776.892 845.73 775.933 847.005 774.945 848.318C734.2 900.988 680.348 935.873 613.776 945.088C550.997 948.628 487.395 933.729 438.763 892.584C396.772 854.87 374.972 803.247 366.571 748.198C366.28 746.346 365.99 744.493 365.69 742.584C365.001 737.152 364.652 731.792 364.383 726.322C364.288 724.894 364.194 723.466 364.097 721.994C360.803 667.708 385.722 613.396 421.399 572.912C475.393 514.72 572.534 511.02 644.403 531.62ZM952.359 664.802C932.132 689.048 926.471 719.646 928.799 750.386C932.755 775.268 941.666 797.727 961.614 813.828C972.73 821.486 983.517 822.175 996.616 820.391C1012.55 815.661 1022.1 805.068 1030.33 791.088C1045.26 762.753 1047.7 728.507 1039.14 697.609C1033.04 680.808 1023.1 663.696 1007.55 654.129C987.199 645.279 968.49 650.201 952.359 664.802ZM508.392 678.843C491.238 704.208 488.306 734.794 492.275 764.495C497.243 789.186 507.836 807.813 528.457 822.579C537.441 827.744 546.736 828.633 556.897 826.954C578.725 819.7 588.717 805.689 598.77 785.935C609.205 758.614 609.055 724.721 599.026 697.369C591.308 680.398 581.801 668.148 565.647 658.504C541.786 650.551 523.764 660.566 508.392 678.843Z" fill="#FEFEFE"/>
<path d="M568.101 659.603C588.564 671.319 598.149 691.699 604.181 713.764C608.813 746.95 605.433 776.564 587.517 805.082C586.299 807.067 585.08 809.053 583.825 811.098C574.208 820.455 561.467 827.436 547.865 828.189C530.009 825.597 519.69 817.568 508.231 803.817C490.676 779.63 487.854 748.198 492.354 719.302C497.362 697.163 505.766 677.089 524.075 662.884C538.314 654.71 552.921 652.996 568.101 659.603Z" fill="black"/>
<path d="M1016.44 660.834C1034.36 676.884 1041.95 700.112 1043.25 723.456C1044.31 755.056 1040.3 782.822 1018.49 807.27C1006.66 817.787 996.08 821.358 980.48 821.131C965.665 819.235 954.664 808.414 945.435 797.306C927.945 770.667 925.05 738.098 931.258 707.458C936.985 685.403 946.778 667.043 965.987 654.134C984.496 645.446 1000.06 649.803 1016.44 660.834Z" fill="black"/>
<path d="M774.382 988.215C776.644 988.205 778.907 988.194 781.237 988.184C786.01 988.17 790.783 988.169 795.556 988.179C802.85 988.187 810.142 988.131 817.435 988.071C822.08 988.066 826.724 988.064 831.368 988.066C834.631 988.033 834.631 988.033 837.96 988C849.453 988.083 857.367 988.454 866.652 996.056C873.591 1004.96 874.603 1011.04 873.738 1022.19C871.002 1028.77 871.002 1028.77 867.169 1035.49C865.772 1037.96 864.376 1040.44 862.937 1043C861.435 1045.59 859.932 1048.18 858.385 1050.84C856.873 1053.5 855.362 1056.15 853.805 1058.88C849.461 1066.47 845.073 1074.03 840.669 1081.58C839.59 1083.45 838.511 1085.32 837.4 1087.25C821.996 1113.89 821.996 1113.89 812.324 1119.59C807.166 1120.7 807.166 1120.7 801.842 1120.78C800.091 1120.85 798.34 1120.92 796.536 1121C783.39 1117.61 776.212 1103.6 769.649 1092.59C768.797 1091.16 767.944 1089.74 767.066 1088.28C764.371 1083.78 761.7 1079.27 759.029 1074.75C757.229 1071.74 755.429 1068.73 753.626 1065.72C748.751 1057.56 743.901 1049.39 739.098 1041.19C738.229 1039.71 737.359 1038.23 736.463 1036.7C729.524 1024.72 727.901 1019.19 729.65 1005.56C740.191 987.497 755.572 988.196 774.382 988.215Z" fill="#010000"/>
<rect x="430" y="107.701" width="40" height="248" transform="rotate(-15.5172 430 107.701)" fill="#4B6DE2"/>
<rect x="1089.81" y="110" width="40" height="248" transform="rotate(19.9967 1089.81 110)" fill="#4B6DE2"/>
<circle cx="441" cy="62" r="62" fill="#4B6DE2"/>
<circle cx="1127" cy="62" r="62" fill="#4B6DE2"/>
<ellipse cx="144.5" cy="869.5" rx="144.5" ry="265.5" fill="black"/>
<ellipse cx="1407.5" cy="847.5" rx="144.5" ry="265.5" fill="black"/>
<path d="M213 655.962L123 628.462C139.5 559.5 235 206.462 792 189.462C1237.6 175.862 1405.33 466.128 1433.5 612.962L1348.5 621.462C1267.5 427.962 1142 253.462 792 256.462C442 259.462 335 428.962 288 472.462C250.4 507.262 222.333 609.295 213 655.962Z" fill="black" stroke="black"/>
<path d="M709 941.5C709 961.562 692.716 982.338 660.441 998.695C628.726 1014.77 584.214 1025 534.5 1025C484.786 1025 440.274 1014.77 408.559 998.695C376.284 982.338 360 961.562 360 941.5C360 921.438 376.284 900.662 408.559 884.305C440.274 868.233 484.786 858 534.5 858C584.214 858 628.726 868.233 660.441 884.305C692.716 900.662 709 921.438 709 941.5Z" stroke="black" stroke-width="20"/>
<path d="M1217 941.5C1217 961.562 1200.72 982.338 1168.44 998.695C1136.73 1014.77 1092.21 1025 1042.5 1025C992.786 1025 948.274 1014.77 916.559 998.695C884.284 982.338 868 961.562 868 941.5C868 921.438 884.284 900.662 916.559 884.305C948.274 868.233 992.786 858 1042.5 858C1092.21 858 1136.73 868.233 1168.44 884.305C1200.72 900.662 1217 921.438 1217 941.5Z" stroke="black" stroke-width="20"/>
<path d="M711 952C736.646 925.588 803.751 888.612 867 952" stroke="black" stroke-width="20"/>
<path d="M821.941 1049.27L822 1049.97C822 1071.47 811.2 1103.71 805.8 1114.46C797.262 1131.45 716.7 1187 624.9 1187H498C689.7 1146.7 641.1 1020.42 738.3 993.548C815.498 972.209 819.249 1017.07 821.941 1049.27Z" fill="black" stroke="black"/>
<path d="M780.058 1049.27L780 1049.97C780 1071.47 790.7 1103.71 796.05 1114.46C804.509 1131.45 884.325 1187 975.275 1187H1101C911.075 1146.7 959.225 1020.42 862.925 993.548C786.442 972.209 782.725 1017.07 780.058 1049.27Z" fill="black" stroke="black"/>
</svg>
